<svg width="36" height="37" viewBox="0 0 36 37" fill="none" xmlns="http://www.w3.org/2000/svg">
<mask id="mask0_1730_2" style="mask-type:alpha" maskUnits="userSpaceOnUse" x="0" y="0" width="36" height="37">
<rect width="36" height="37" fill="#D9D9D9"/>
</mask>
<g mask="url(#mask0_1730_2)">
<path d="M17.6299 35.8556C27.2216 35.8556 34.9972 28.08 34.9972 18.4883C34.9972 8.89667 27.2216 1.12109 17.6299 1.12109C8.03827 1.12109 0.262695 8.89667 0.262695 18.4883C0.262695 28.08 8.03827 35.8556 17.6299 35.8556Z" stroke="#222222" stroke-width="0.5733" stroke-miterlimit="10"/>
<path d="M15.1347 31.3547C13.5808 24.335 9.95741 26.9792 7.50003 26.2058C7.20911 26.1135 6.42152 25.2976 7.60409 23.6254C8.14571 22.8591 7.62774 22.476 7.59463 22.159C7.52841 21.4921 7.94231 21.1775 7.94231 21.1775L7.43144 20.5649L8.02509 19.7064C8.17882 19.484 8.11496 19.1766 7.88554 19.0347L6.69588 18.2944C6.54214 18.1998 6.49957 17.994 6.60364 17.8474C6.60364 17.8474 9.33301 15.3427 9.59791 13.4269C9.8628 11.5088 9.85098 11.2013 9.99288 10.5651C10.298 9.20751 11.0501 8.13847 11.7667 7.08361C16.818 2.80291 16.2573 3.92412 22.424 1.6817C20.1816 1.12108 19.7089 1.12109 17.6299 1.12109C8.03928 1.12109 0.262695 8.89768 0.262695 18.4883C0.262695 27.4357 7.02936 34.7983 15.7236 35.7491C15.5604 34.0841 15.357 32.367 15.1347 31.3547Z" fill="#222222"/>
<path d="M17.6302 34.5308C26.4903 34.5308 33.6729 27.3482 33.6729 18.4881C33.6729 9.6279 26.4903 2.44531 17.6302 2.44531C8.76999 2.44531 1.5874 9.6279 1.5874 18.4881C1.5874 27.3482 8.76999 34.5308 17.6302 34.5308Z" stroke="#FBF8F1" stroke-width="0.3" stroke-miterlimit="10"/>
<path d="M17.6299 33.0859C25.6919 33.0859 32.2275 26.5503 32.2275 18.4883C32.2275 10.4262 25.6919 3.89062 17.6299 3.89062C9.56782 3.89062 3.03223 10.4262 3.03223 18.4883C3.03223 26.5503 9.56782 33.0859 17.6299 33.0859Z" stroke="#FBF8F1" stroke-width="0.3" stroke-miterlimit="10"/>
<path d="M6.68662 13.4248L6.85928 12.623L7.03194 13.4248L7.83372 13.5975L7.03194 13.7678L6.85928 14.5696L6.68662 13.7678L5.88721 13.5975L6.68662 13.4248Z" fill="#FBF8F1"/>
<path d="M6.03614 21.4917L6.11655 21.1133L6.19697 21.4917L6.57302 21.5721L6.19697 21.6525L6.11655 22.031L6.03614 21.6525L5.65771 21.5721L6.03614 21.4917Z" fill="#FBF8F1"/>
<path d="M7.82395 10.7522L7.92565 10.2744L8.02735 10.7522L8.50511 10.8539L8.02735 10.9556L7.92565 11.4333L7.82395 10.9556L7.34619 10.8539L7.82395 10.7522Z" fill="#FBF8F1"/>
<path d="M14.2549 14.7734C13.7464 15.0218 13.2261 15.2157 12.6868 15.3434C12.4172 15.412 12.1452 15.4593 11.8685 15.4948C11.5918 15.535 11.3151 15.5397 11.0312 15.5539C11.5871 15.6698 12.1736 15.6462 12.7271 15.509C13.0038 15.4404 13.2758 15.3482 13.5336 15.2228C13.789 15.0998 14.0397 14.9579 14.2549 14.7734Z" fill="#222222"/>
<path d="M14.2713 14.7848C13.7321 14.8818 13.1857 14.9456 12.6418 14.9669C12.3698 14.9787 12.0978 14.974 11.8329 14.948C11.5704 14.922 11.3031 14.8723 11.1021 14.7588L10.9507 15.0639C11.2463 15.1892 11.5372 15.2011 11.8211 15.2034C12.1049 15.2011 12.3816 15.1774 12.656 15.1372C13.2047 15.0592 13.7439 14.9362 14.2713 14.7848Z" fill="#222222"/>
<path d="M11.1897 14.9082C11.1188 14.9792 11.0147 15.0454 10.913 15.0974C10.8089 15.1494 10.6978 15.1897 10.5819 15.218C10.3525 15.2724 10.1088 15.2866 9.86523 15.2606C10.1017 15.3126 10.3501 15.3316 10.5961 15.3008C10.7191 15.2843 10.842 15.2559 10.9603 15.2133C11.0809 15.1684 11.1921 15.1187 11.3032 15.0312L11.1897 14.9082Z" fill="#222222"/>
<path d="M11.4544 14.9619C11.4095 15.0376 11.3267 15.1204 11.2486 15.189C11.1659 15.2599 11.076 15.3214 10.9814 15.3782C10.7922 15.4917 10.5864 15.5816 10.3735 15.6549C10.5935 15.61 10.8111 15.5461 11.0192 15.4539C11.1233 15.4089 11.225 15.3545 11.3243 15.2907C11.4213 15.2244 11.5135 15.1606 11.5987 15.0518L11.4544 14.9619Z" fill="#222222"/>
<path d="M11.9774 15.0283C11.9324 15.104 11.8496 15.1868 11.7716 15.2554C11.6888 15.3263 11.5989 15.3878 11.5043 15.4446C11.3151 15.5581 11.1093 15.648 10.8965 15.7213C11.1164 15.6764 11.334 15.6125 11.5422 15.5203C11.6462 15.4753 11.7479 15.4209 11.8473 15.3571C11.9442 15.2909 12.0365 15.227 12.1216 15.1182L11.9774 15.0283Z" fill="#222222"/>
<path d="M9.24346 21.764L7.60205 21.2342L7.72031 20.9551L9.24346 21.764Z" fill="#222222"/>
<mask id="mask1_1730_2" style="mask-type:luminance" maskUnits="userSpaceOnUse" x="6" y="1" width="41" height="40">
<path d="M29.0204 1.12109C25.378 1.12109 14.7444 2.65371 11.769 7.08362C11.0571 8.14083 10.3003 9.20751 9.99516 10.5651C9.85325 11.2013 9.86508 11.5088 9.60018 13.4269C9.33529 15.3451 6.60591 17.8474 6.60591 17.8474C6.50185 17.9964 6.54442 18.1998 6.69816 18.2944L7.88782 19.0347C8.11724 19.1766 8.1811 19.4841 8.02737 19.7064L7.43371 20.5649L7.94458 21.1775C7.94458 21.1775 7.53069 21.4921 7.59691 22.159C7.62766 22.4736 8.14799 22.8591 7.60637 23.6254C6.4238 25.2976 7.21139 26.1159 7.5023 26.2058C9.95732 26.9792 13.5807 24.335 15.137 31.3547C15.6786 33.7979 16.102 40.3635 16.102 40.3635L24.6661 35.3045C26.0592 35.664 27.5185 35.8556 29.0251 35.8556C38.6157 35.8556 46.3923 28.079 46.3923 18.4883C46.3923 8.89768 38.6134 1.12109 29.0204 1.12109Z" fill="white"/>
</mask>
<g mask="url(#mask1_1730_2)">
<path d="M17.523 35.7843C27.095 35.7843 34.8546 28.0247 34.8546 18.4527C34.8546 8.88072 27.095 1.12109 17.523 1.12109C7.95103 1.12109 0.191406 8.88072 0.191406 18.4527C0.191406 28.0247 7.95103 35.7843 17.523 35.7843Z" stroke="#222222" stroke-width="0.3" stroke-miterlimit="10"/>
</g>
<mask id="mask2_1730_2" style="mask-type:luminance" maskUnits="userSpaceOnUse" x="6" y="1" width="41" height="40">
<path d="M29.0204 1.12109C25.378 1.12109 14.7444 2.65371 11.769 7.08362C11.0571 8.14083 10.3003 9.20751 9.99516 10.5651C9.85325 11.2013 9.86508 11.5088 9.60018 13.4269C9.33529 15.3451 6.60591 17.8474 6.60591 17.8474C6.50185 17.9964 6.54442 18.1998 6.69816 18.2944L7.88782 19.0347C8.11724 19.1766 8.1811 19.4841 8.02737 19.7064L7.43371 20.5649L7.94458 21.1775C7.94458 21.1775 7.53069 21.4921 7.59691 22.159C7.62766 22.4736 8.14799 22.8591 7.60637 23.6254C6.4238 25.2976 7.21139 26.1159 7.5023 26.2058C9.95732 26.9792 13.5807 24.335 15.137 31.3547C15.6786 33.7979 16.102 40.3635 16.102 40.3635L24.6661 35.3045C26.0592 35.664 27.5185 35.8556 29.0251 35.8556C38.6157 35.8556 46.3923 28.079 46.3923 18.4883C46.3923 8.89768 38.6134 1.12109 29.0204 1.12109Z" fill="white"/>
</mask>
<g mask="url(#mask2_1730_2)">
<path d="M17.6297 34.5308C26.4898 34.5308 33.6724 27.3482 33.6724 18.4881C33.6724 9.6279 26.4898 2.44531 17.6297 2.44531C8.7695 2.44531 1.58691 9.6279 1.58691 18.4881C1.58691 27.3482 8.7695 34.5308 17.6297 34.5308Z" stroke="#222222" stroke-width="0.3" stroke-miterlimit="10"/>
<path d="M17.6299 33.0859C25.6919 33.0859 32.2275 26.5503 32.2275 18.4883C32.2275 10.4262 25.6919 3.89062 17.6299 3.89062C9.56782 3.89062 3.03223 10.4262 3.03223 18.4883C3.03223 26.5503 9.56782 33.0859 17.6299 33.0859Z" stroke="#222222" stroke-width="0.3" stroke-miterlimit="10"/>
</g>
</g>
</svg>
