<svg width="113" height="37" viewBox="0 0 113 37" fill="none" xmlns="http://www.w3.org/2000/svg">
<mask id="mask0_1918_2" style="mask-type:alpha" maskUnits="userSpaceOnUse" x="0" y="0" width="35" height="37">
<rect x="0.142822" width="34.7576" height="37" fill="#D9D9D9"/>
</mask>
<g mask="url(#mask0_1918_2)">
<path d="M17.7729 35.8557C27.3646 35.8557 35.1402 28.0801 35.1402 18.4884C35.1402 8.89679 27.3646 1.12122 17.7729 1.12122C8.18128 1.12122 0.405701 8.89679 0.405701 18.4884C0.405701 28.0801 8.18128 35.8557 17.7729 35.8557Z" stroke="#222222" stroke-width="0.5733" stroke-miterlimit="10"/>
<path d="M15.2777 31.3548C13.7238 24.3351 10.1004 26.9793 7.64303 26.2059C7.35212 26.1137 6.56453 25.2977 7.7471 23.6255C8.28872 22.8592 7.77075 22.4761 7.73764 22.1591C7.67141 21.4922 8.08531 21.1776 8.08531 21.1776L7.57444 20.565L8.16809 19.7065C8.32183 19.4842 8.25797 19.1767 8.02855 19.0348L6.83888 18.2945C6.68515 18.1999 6.64258 17.9941 6.74664 17.8475C6.74664 17.8475 9.47602 15.3428 9.74091 13.427C10.0058 11.5089 9.99398 11.2014 10.1359 10.5652C10.441 9.20763 11.1931 8.13859 11.9097 7.08374C16.961 2.80303 16.4004 3.92425 22.567 1.68182C20.3246 1.1212 19.8519 1.12122 17.7729 1.12122C8.18228 1.12122 0.405701 8.8978 0.405701 18.4884C0.405701 27.4358 7.17237 34.7985 15.8666 35.7492C15.7034 34.0842 15.5 32.3671 15.2777 31.3548Z" fill="#222222"/>
<path d="M17.773 34.5312C26.6331 34.5312 33.8157 27.3486 33.8157 18.4884C33.8157 9.62826 26.6331 2.44568 17.773 2.44568C8.91281 2.44568 1.73022 9.62826 1.73022 18.4884C1.73022 27.3486 8.91281 34.5312 17.773 34.5312Z" stroke="#FBF8F1" stroke-width="0.3" stroke-miterlimit="10"/>
<path d="M17.7731 33.0861C25.8351 33.0861 32.3707 26.5505 32.3707 18.4885C32.3707 10.4264 25.8351 3.89081 17.7731 3.89081C9.71101 3.89081 3.17542 10.4264 3.17542 18.4885C3.17542 26.5505 9.71101 33.0861 17.7731 33.0861Z" stroke="#FBF8F1" stroke-width="0.3" stroke-miterlimit="10"/>
<path d="M6.82945 13.4247L7.0021 12.6229L7.17476 13.4247L7.97654 13.5973L7.17476 13.7676L7.0021 14.5694L6.82945 13.7676L6.03003 13.5973L6.82945 13.4247Z" fill="#FBF8F1"/>
<path d="M6.17908 21.4922L6.2595 21.1138L6.33991 21.4922L6.71597 21.5726L6.33991 21.653L6.2595 22.0314L6.17908 21.653L5.80066 21.5726L6.17908 21.4922Z" fill="#FBF8F1"/>
<path d="M7.96708 10.7521L8.06878 10.2743L8.17048 10.7521L8.64824 10.8538L8.17048 10.9555L8.06878 11.4332L7.96708 10.9555L7.48932 10.8538L7.96708 10.7521Z" fill="#FBF8F1"/>
<path d="M14.3979 14.7728C13.8894 15.0211 13.3691 15.2151 12.8299 15.3428C12.5602 15.4114 12.2882 15.4587 12.0115 15.4942C11.7348 15.5344 11.4581 15.5391 11.1743 15.5533C11.7301 15.6692 12.3166 15.6455 12.8701 15.5084C13.1468 15.4398 13.4188 15.3475 13.6766 15.2222C13.932 15.0992 14.1827 14.9573 14.3979 14.7728Z" fill="#222222"/>
<path d="M14.4144 14.7846C13.8752 14.8816 13.3288 14.9455 12.7848 14.9667C12.5128 14.9786 12.2408 14.9738 11.9759 14.9478C11.7134 14.9218 11.4462 14.8721 11.2451 14.7586L11.0938 15.0637C11.3894 15.1891 11.6803 15.2009 11.9641 15.2033C12.2479 15.2009 12.5247 15.1772 12.799 15.137C13.3477 15.059 13.887 14.936 14.4144 14.7846Z" fill="#222222"/>
<path d="M11.3327 14.9076C11.2617 14.9786 11.1576 15.0448 11.0559 15.0968C10.9519 15.1489 10.8407 15.1891 10.7248 15.2175C10.4954 15.2719 10.2518 15.286 10.0082 15.26C10.2447 15.3121 10.493 15.331 10.739 15.3002C10.862 15.2837 10.985 15.2553 11.1032 15.2127C11.2239 15.1678 11.335 15.1181 11.4462 15.0306L11.3327 14.9076Z" fill="#222222"/>
<path d="M11.5976 14.962C11.5527 15.0377 11.4699 15.1205 11.3918 15.1891C11.309 15.26 11.2192 15.3215 11.1246 15.3783C10.9354 15.4918 10.7296 15.5817 10.5167 15.655C10.7367 15.6101 10.9543 15.5462 11.1624 15.454C11.2665 15.409 11.3682 15.3546 11.4675 15.2908C11.5645 15.2245 11.6567 15.1607 11.7419 15.0519L11.5976 14.962Z" fill="#222222"/>
<path d="M12.1203 15.0282C12.0754 15.1039 11.9926 15.1867 11.9145 15.2553C11.8318 15.3262 11.7419 15.3877 11.6473 15.4445C11.4581 15.558 11.2523 15.6479 11.0394 15.7212C11.2594 15.6763 11.477 15.6124 11.6851 15.5202C11.7892 15.4752 11.8909 15.4208 11.9902 15.357C12.0872 15.2908 12.1794 15.2269 12.2646 15.1181L12.1203 15.0282Z" fill="#222222"/>
<path d="M9.38628 21.7642L7.74487 21.2344L7.86313 20.9553L9.38628 21.7642Z" fill="#222222"/>
<mask id="mask1_1918_2" style="mask-type:luminance" maskUnits="userSpaceOnUse" x="6" y="1" width="41" height="40">
<path d="M29.1636 1.12122C25.5213 1.12122 14.8876 2.65383 11.9123 7.08374C11.2004 8.14096 10.4435 9.20763 10.1384 10.5652C9.9965 11.2014 10.0083 11.5089 9.74343 13.427C9.47854 15.3452 6.74916 17.8475 6.74916 17.8475C6.6451 17.9965 6.68767 18.1999 6.84141 18.2945L8.03107 19.0348C8.26049 19.1767 8.32435 19.4842 8.17061 19.7065L7.57696 20.565L8.08783 21.1776C8.08783 21.1776 7.67393 21.4922 7.74016 22.1591C7.77091 22.4737 8.29124 22.8592 7.74962 23.6255C6.56705 25.2977 7.35464 26.116 7.64555 26.2059C10.1006 26.9793 13.724 24.3351 15.2802 31.3548C15.8218 33.798 16.2452 40.3636 16.2452 40.3636L24.8094 35.3046C26.2025 35.6641 27.6617 35.8557 29.1683 35.8557C38.759 35.8557 46.5356 28.0791 46.5356 18.4884C46.5356 8.8978 38.7566 1.12122 29.1636 1.12122Z" fill="white"/>
</mask>
<g mask="url(#mask1_1918_2)">
<path d="M17.6661 35.7844C27.2381 35.7844 34.9977 28.0248 34.9977 18.4528C34.9977 8.88084 27.2381 1.12122 17.6661 1.12122C8.0941 1.12122 0.334473 8.88084 0.334473 18.4528C0.334473 28.0248 8.0941 35.7844 17.6661 35.7844Z" stroke="#222222" stroke-width="0.3" stroke-miterlimit="10"/>
</g>
<mask id="mask2_1918_2" style="mask-type:luminance" maskUnits="userSpaceOnUse" x="6" y="1" width="41" height="40">
<path d="M29.1636 1.12122C25.5213 1.12122 14.8876 2.65383 11.9123 7.08374C11.2004 8.14096 10.4435 9.20763 10.1384 10.5652C9.9965 11.2014 10.0083 11.5089 9.74343 13.427C9.47854 15.3452 6.74916 17.8475 6.74916 17.8475C6.6451 17.9965 6.68767 18.1999 6.84141 18.2945L8.03107 19.0348C8.26049 19.1767 8.32435 19.4842 8.17061 19.7065L7.57696 20.565L8.08783 21.1776C8.08783 21.1776 7.67393 21.4922 7.74016 22.1591C7.77091 22.4737 8.29124 22.8592 7.74962 23.6255C6.56705 25.2977 7.35464 26.116 7.64555 26.2059C10.1006 26.9793 13.724 24.3351 15.2802 31.3548C15.8218 33.798 16.2452 40.3636 16.2452 40.3636L24.8094 35.3046C26.2025 35.6641 27.6617 35.8557 29.1683 35.8557C38.759 35.8557 46.5356 28.0791 46.5356 18.4884C46.5356 8.8978 38.7566 1.12122 29.1636 1.12122Z" fill="white"/>
</mask>
<g mask="url(#mask2_1918_2)">
<path d="M17.773 34.5312C26.6331 34.5312 33.8157 27.3486 33.8157 18.4884C33.8157 9.62826 26.6331 2.44568 17.773 2.44568C8.91281 2.44568 1.73022 9.62826 1.73022 18.4884C1.73022 27.3486 8.91281 34.5312 17.773 34.5312Z" stroke="#222222" stroke-width="0.3" stroke-miterlimit="10"/>
<path d="M17.7731 33.0861C25.8351 33.0861 32.3707 26.5505 32.3707 18.4885C32.3707 10.4264 25.8351 3.89081 17.7731 3.89081C9.71101 3.89081 3.17542 10.4264 3.17542 18.4885C3.17542 26.5505 9.71101 33.0861 17.7731 33.0861Z" stroke="#222222" stroke-width="0.3" stroke-miterlimit="10"/>
</g>
<path d="M36.0857 10.5714H26.5714V28.5429H36.0857V10.5714Z" fill="#FBF8F1"/>
</g>
<path d="M23.6269 28C22.7031 28 21.9437 27.9372 21.3487 27.8115C20.7537 27.7016 20.2761 27.5366 19.916 27.3168C19.5715 27.0812 19.3288 26.7906 19.1879 26.445C19.0626 26.0995 19 25.6911 19 25.2199C19 25.0785 19.0078 24.8822 19.0235 24.6309C19.0391 24.3639 19.0626 23.9948 19.0939 23.5236C19.1253 23.0524 19.1644 22.4476 19.2114 21.7094C19.274 20.9555 19.3523 20.0131 19.4462 18.8822C19.5559 17.4843 19.642 16.377 19.7046 15.5602C19.7672 14.7435 19.8142 14.1152 19.8455 13.6754C19.8768 13.2199 19.8925 12.9058 19.8925 12.733C19.9082 12.5445 19.916 12.3874 19.916 12.2618C19.916 12.0105 19.916 11.8063 19.916 11.6492C19.9316 11.4921 19.9473 11.3743 19.963 11.2958C19.9943 11.2016 20.0334 11.1387 20.0804 11.1073C20.143 11.0602 20.2291 11.0366 20.3387 11.0366C21.2626 10.9738 22.0454 10.9267 22.6874 10.8953C23.345 10.8639 23.9166 10.8482 24.402 10.8482C25.5919 10.8482 26.6097 10.9503 27.4552 11.1544C28.3164 11.3429 29.0132 11.6178 29.5455 11.9791C30.0779 12.3403 30.4694 12.788 30.7199 13.322C30.9704 13.856 31.0957 14.4607 31.0957 15.1361C31.0957 15.5131 31.0565 15.9058 30.9782 16.3141C30.9 16.7068 30.7669 17.0838 30.579 17.445C30.3911 17.8063 30.1327 18.1283 29.8039 18.411C29.4907 18.678 29.0915 18.8743 28.6061 19C29.5142 19.2827 30.1562 19.7539 30.532 20.4136C30.9078 21.0576 31.0957 21.8272 31.0957 22.7225C31.0957 23.445 30.9782 24.1283 30.7434 24.7723C30.5085 25.4005 30.1014 25.9581 29.5221 26.445C28.9427 26.9162 28.1755 27.2932 27.2204 27.5759C26.2652 27.8586 25.0674 28 23.6269 28ZM24.9656 20.6963C24.7934 20.6963 24.582 20.712 24.3315 20.7435C24.081 20.7592 23.8226 20.7906 23.5564 20.8377L23.2981 24.678C23.8618 24.8508 24.3706 24.9372 24.8247 24.9372C25.3101 24.9372 25.7016 24.8665 25.999 24.7251C26.2965 24.5838 26.5236 24.411 26.6802 24.2068C26.8524 23.9869 26.962 23.7513 27.009 23.5C27.0716 23.233 27.1029 22.9895 27.1029 22.7696C27.1029 22.1885 26.9385 21.7016 26.6097 21.3089C26.2965 20.9005 25.7485 20.6963 24.9656 20.6963ZM23.9792 14.2173C23.9479 14.6257 23.9166 15.1047 23.8852 15.6544C23.8696 16.2042 23.8383 16.801 23.7913 17.445C24.2923 17.5707 24.7386 17.6335 25.13 17.6335C25.5998 17.6335 25.9756 17.5785 26.2574 17.4686C26.5392 17.3586 26.7585 17.2173 26.915 17.0445C27.0873 16.8717 27.1969 16.6832 27.2438 16.4791C27.3065 16.2749 27.3378 16.0785 27.3378 15.8901C27.3378 15.4031 27.1734 14.9869 26.8446 14.6414C26.5314 14.2801 25.9834 14.0995 25.2005 14.0995C25.0283 14.0995 24.8325 14.1152 24.6133 14.1466C24.4098 14.1623 24.1984 14.1859 23.9792 14.2173Z" fill="#212121"/>
<path d="M38.4111 28C37.7221 28 37.0332 27.9136 36.3442 27.7408C35.6709 27.5681 35.0603 27.2696 34.5123 26.8456C33.9799 26.4215 33.5415 25.856 33.197 25.1492C32.8525 24.4424 32.6803 23.555 32.6803 22.4869C32.6803 22.0942 32.7116 21.623 32.7742 21.0733C32.8369 20.5236 32.9543 19.9581 33.1265 19.377C33.3144 18.7958 33.565 18.2225 33.8781 17.6571C34.2069 17.0759 34.6297 16.5576 35.1464 16.1021C35.6631 15.6466 36.2894 15.2775 37.0253 14.9948C37.7613 14.712 38.6381 14.5707 39.6559 14.5707C40.4701 14.5707 41.159 14.6649 41.7227 14.8534C42.2864 15.0419 42.7404 15.301 43.0849 15.6309C43.4294 15.945 43.6799 16.3141 43.8365 16.7382C43.9931 17.1623 44.0714 17.6178 44.0714 18.1047C44.0714 18.8272 43.9226 19.4398 43.6251 19.9424C43.3433 20.445 42.9675 20.8691 42.4978 21.2147C42.0437 21.5445 41.5348 21.8037 40.9711 21.9921C40.4074 22.1806 39.8516 22.3298 39.3036 22.4398C38.7555 22.534 38.2467 22.5969 37.7769 22.6283C37.3228 22.644 36.9705 22.6518 36.72 22.6518C36.72 22.9503 36.7592 23.2487 36.8374 23.5471C36.9314 23.8298 37.0645 24.0812 37.2367 24.301C37.409 24.5209 37.636 24.7016 37.9178 24.8429C38.1997 24.9843 38.5442 25.055 38.9513 25.055C39.3584 25.055 39.6715 24.9921 39.8907 24.8665C40.1256 24.7251 40.3135 24.5759 40.4544 24.4188C40.5953 24.2461 40.7128 24.0969 40.8067 23.9712C40.9163 23.8298 41.0572 23.7592 41.2295 23.7592C41.3078 23.7592 41.4408 23.7827 41.6287 23.8298C41.8323 23.8613 42.0358 23.9398 42.2394 24.0654C42.4429 24.1911 42.623 24.3639 42.7796 24.5838C42.9362 24.8037 43.0145 25.0864 43.0145 25.4319C43.0145 25.8874 42.8735 26.2801 42.5917 26.6099C42.3099 26.9398 41.9419 27.2068 41.4878 27.411C41.0494 27.6152 40.5562 27.7644 40.0082 27.8586C39.4601 27.9529 38.9278 28 38.4111 28ZM38.8573 17.7042C38.5128 17.7042 38.2153 17.8063 37.9648 18.0105C37.7299 18.199 37.5264 18.4424 37.3542 18.7408C37.1976 19.0393 37.0723 19.3691 36.9784 19.7304C36.9001 20.0916 36.8374 20.4372 36.7905 20.767C37.7613 20.7513 38.5442 20.5864 39.1391 20.2723C39.7498 19.9581 40.0551 19.5105 40.0551 18.9293C40.0551 18.6152 39.9534 18.3325 39.7498 18.0812C39.5619 17.8298 39.2644 17.7042 38.8573 17.7042Z" fill="#212121"/>
<path d="M44.7813 24.8665C44.7813 23.4529 45.4154 22.3455 46.6837 21.5445C47.952 20.7435 49.8231 20.3115 52.297 20.2487C52.3127 20.0759 52.3205 19.9346 52.3205 19.8246C52.3362 19.699 52.344 19.5497 52.344 19.377C52.344 18.8743 52.2501 18.4738 52.0622 18.1754C51.8743 17.877 51.4828 17.7277 50.8878 17.7277C50.559 17.7277 50.2928 17.7749 50.0893 17.8691C49.8857 17.9634 49.7213 18.0969 49.5961 18.2696C49.4708 18.4267 49.369 18.623 49.2907 18.8586C49.2125 19.0942 49.142 19.3534 49.0794 19.6361C49.048 19.7775 48.9776 19.8717 48.868 19.9188C48.7584 19.9503 48.5861 19.966 48.3513 19.966C46.7542 19.966 45.9556 19.3613 45.9556 18.1518C45.9556 17.6649 46.0652 17.2016 46.2844 16.7618C46.5193 16.322 46.8559 15.945 47.2944 15.6309C47.7484 15.301 48.3121 15.0419 48.9854 14.8534C49.6587 14.6649 50.4416 14.5707 51.3341 14.5707C53.0721 14.5707 54.3326 14.9319 55.1155 15.6544C55.8983 16.377 56.2898 17.3979 56.2898 18.7173C56.2898 18.8901 56.2663 19.2042 56.2193 19.6597C56.188 20.0995 56.141 20.5707 56.0784 21.0733C56.0314 21.5602 55.9845 22.0236 55.9375 22.4634C55.9062 22.9031 55.8905 23.2094 55.8905 23.3822C55.8905 23.7749 55.961 24.0576 56.1019 24.2304C56.2428 24.3874 56.3994 24.4974 56.5716 24.5602C56.7595 24.623 56.9239 24.6702 57.0649 24.7016C57.2058 24.733 57.2762 24.8115 57.2762 24.9372C57.2762 25.2827 57.2293 25.6361 57.1353 25.9974C57.0414 26.3586 56.8848 26.6885 56.6656 26.9869C56.462 27.2853 56.1724 27.5288 55.7966 27.7173C55.4364 27.9058 54.9902 28 54.4578 28C53.7062 28 53.1426 27.8194 52.7668 27.4581C52.391 27.0969 52.1405 26.5942 52.0152 25.9503C51.6394 26.5 51.1462 26.9791 50.5355 27.3874C49.9405 27.7958 49.1576 28 48.1869 28C47.7171 28 47.2709 27.945 46.8481 27.8351C46.441 27.7251 46.0809 27.5445 45.7677 27.2932C45.4702 27.0419 45.2275 26.7199 45.0396 26.3272C44.8674 25.9188 44.7813 25.4319 44.7813 24.8665ZM52.0857 22.1806C51.6786 22.1806 51.2793 22.212 50.8878 22.2749C50.4964 22.3377 50.1441 22.4398 49.8309 22.5812C49.5334 22.7068 49.2907 22.8796 49.1028 23.0995C48.915 23.3194 48.821 23.5864 48.821 23.9005C48.821 24.2618 48.9306 24.5131 49.1498 24.6545C49.3847 24.7958 49.6352 24.8665 49.9014 24.8665C50.1519 24.8665 50.4024 24.8115 50.653 24.7016C50.9035 24.5916 51.1227 24.4267 51.3106 24.2068C51.5142 23.9712 51.6864 23.6885 51.8273 23.3586C51.9682 23.0288 52.0543 22.6361 52.0857 22.1806Z" fill="#212121"/>
<path d="M63.2061 16.8089C63.2061 17.1387 63.1748 17.6021 63.1121 18.199C63.0652 18.7958 63.0104 19.4162 62.9477 20.0602C62.9008 20.7042 62.846 21.3089 62.7833 21.8743C62.7363 22.4398 62.7129 22.8482 62.7129 23.0995C62.7129 23.6492 62.846 24.0812 63.1121 24.3953C63.394 24.6937 63.7776 24.8429 64.263 24.8429C64.6857 24.8429 65.0381 24.678 65.3199 24.3482C65.6174 24.0026 65.8523 23.5628 66.0245 23.0288C66.2124 22.4791 66.3611 21.8586 66.4707 21.1675C66.5803 20.4764 66.6586 19.7775 66.7056 19.0707C66.7682 18.3639 66.8152 17.6806 66.8465 17.0209C66.8935 16.3455 66.9405 15.7644 66.9874 15.2775C67.0031 15.1518 67.0501 15.0419 67.1284 14.9476C67.2067 14.8534 67.3319 14.8063 67.5042 14.8063H68.3497C68.8351 14.8063 69.2265 14.8613 69.524 14.9712C69.8372 15.0654 70.0799 15.2068 70.2521 15.3953C70.44 15.5838 70.5653 15.8194 70.6279 16.1021C70.7062 16.3691 70.7453 16.6832 70.7453 17.0445C70.7453 17.2801 70.7297 17.6178 70.6984 18.0576C70.6827 18.4817 70.6436 19.0785 70.5809 19.8482C70.5183 20.6021 70.44 21.5681 70.3461 22.7461C70.2678 23.9084 70.166 25.3534 70.0407 27.0812C70.0094 27.411 69.9703 27.6073 69.9233 27.6702C69.892 27.733 69.7667 27.7644 69.5475 27.7644H68.6315C68.1618 27.7644 67.7703 27.7094 67.4572 27.5995C67.1597 27.4895 66.917 27.3482 66.7291 27.1754C66.5412 27.0026 66.4081 26.7984 66.3298 26.5628C66.2515 26.3272 66.2046 26.0838 66.1889 25.8325C65.954 26.2408 65.6879 26.5864 65.3904 26.8691C65.1085 27.1518 64.811 27.3796 64.4979 27.5524C64.1847 27.7094 63.8637 27.8194 63.5349 27.8822C63.2061 27.9607 62.8851 28 62.5719 28C61.9769 28 61.4446 27.9058 60.9748 27.7173C60.5051 27.5131 60.1058 27.2461 59.777 26.9162C59.4639 26.5864 59.2212 26.1937 59.0489 25.7382C58.8767 25.2827 58.7906 24.7958 58.7906 24.2775C58.7906 24.0733 58.7984 23.7435 58.8141 23.288C58.8454 22.8168 58.8767 22.2906 58.908 21.7094C58.955 21.1283 59.002 20.5157 59.0489 19.8717C59.0959 19.212 59.135 18.5916 59.1664 18.0105C59.2133 17.4293 59.2525 16.9188 59.2838 16.4791C59.3308 16.0393 59.3621 15.7251 59.3777 15.5366C59.4091 15.2539 59.4717 15.0654 59.5656 14.9712C59.6596 14.8613 59.8162 14.8063 60.0354 14.8063H60.7869C61.2723 14.8063 61.6716 14.8534 61.9848 14.9476C62.2979 15.0419 62.5406 15.1754 62.7129 15.3482C62.9008 15.5209 63.026 15.733 63.0886 15.9843C63.1669 16.2199 63.2061 16.4948 63.2061 16.8089Z" fill="#212121"/>
<path d="M77.8526 17.9869C77.8057 18.5838 77.7509 19.1728 77.6882 19.7539C77.6413 20.3351 77.5943 20.8848 77.5473 21.4031C77.5003 21.9215 77.4612 22.3848 77.4299 22.7932C77.4142 23.2016 77.4064 23.5157 77.4064 23.7356C77.4064 24.144 77.4534 24.4188 77.5473 24.5602C77.6413 24.6859 77.7978 24.7487 78.017 24.7487C78.1893 24.7487 78.338 24.7173 78.4633 24.6545C78.5886 24.5916 78.706 24.5209 78.8156 24.4424C78.9252 24.3639 79.0191 24.2932 79.0974 24.2304C79.1914 24.1675 79.2932 24.1361 79.4028 24.1361C79.5124 24.1361 79.6141 24.199 79.7081 24.3246C79.802 24.4503 79.849 24.7408 79.849 25.1963C79.849 26.0602 79.6141 26.7435 79.1444 27.2461C78.6747 27.7487 77.8683 28 76.7253 28C75.5979 28 74.7602 27.7408 74.2122 27.2225C73.6798 26.6885 73.4136 25.8796 73.4136 24.7958C73.4136 24.5602 73.4215 24.2853 73.4371 23.9712C73.4684 23.6414 73.5076 23.2173 73.5546 22.699C73.6015 22.1806 73.6563 21.5445 73.719 20.7906C73.7973 20.0366 73.8755 19.1021 73.9538 17.9869H72.709C72.5838 17.9869 72.5055 17.9634 72.4742 17.9162C72.4585 17.8534 72.4507 17.767 72.4507 17.6571L72.5211 16.4555C72.5368 16.2513 72.5603 16.055 72.5916 15.8665C72.6386 15.6623 72.7169 15.4817 72.8265 15.3246C72.9517 15.1675 73.124 15.0419 73.3432 14.9476C73.5624 14.8534 73.8521 14.8063 74.2122 14.8063C74.3218 14.5236 74.4471 14.1859 74.588 13.7932C74.7289 13.4005 74.8698 13.0236 75.0107 12.6623C75.1517 12.2853 75.2848 11.9712 75.41 11.7199C75.5509 11.4686 75.6762 11.3429 75.7858 11.3429H76.4669C77.1245 11.3429 77.5786 11.5471 77.8292 11.9555C78.0797 12.3639 78.2049 12.8508 78.2049 13.4162C78.2049 13.7304 78.1814 14.1937 78.1345 14.8063H80.6006C80.8511 14.8063 80.9764 14.9162 80.9764 15.1361L80.8824 16.4084C80.8511 16.8796 80.718 17.2644 80.4832 17.5628C80.2639 17.8455 79.802 17.9869 79.0974 17.9869H77.8526Z" fill="#212121"/>
<path d="M84.6031 27.7644C84.1177 27.7644 83.7184 27.7173 83.4052 27.623C83.1077 27.5131 82.865 27.3639 82.6771 27.1754C82.5049 26.9869 82.3796 26.7592 82.3014 26.4921C82.2387 26.2094 82.2074 25.8874 82.2074 25.5262C82.2074 25.2906 82.2152 24.9607 82.2309 24.5366C82.2622 24.0969 82.3092 23.5 82.3718 22.7461C82.4344 21.9764 82.5049 21.0105 82.5832 19.8482C82.6771 18.6702 82.7868 17.2173 82.912 15.4895C82.9277 15.144 82.9668 14.9398 83.0294 14.877C83.0764 14.8298 83.2017 14.8063 83.4052 14.8063H84.3212C84.8066 14.8063 85.1981 14.8534 85.4956 14.9476C85.8087 15.0419 86.0514 15.1832 86.2236 15.3717C86.4115 15.5602 86.5368 15.788 86.5994 16.055C86.6777 16.322 86.7169 16.6204 86.7169 16.9503C86.7169 17.1859 86.7012 17.5393 86.6699 18.0105C86.6386 18.4817 86.5916 19.1257 86.529 19.9424C86.482 20.7435 86.4115 21.7487 86.3176 22.9581C86.2236 24.1518 86.1062 25.5969 85.9653 27.2932C85.9496 27.4817 85.9105 27.6073 85.8479 27.6702C85.7852 27.733 85.6521 27.7644 85.4486 27.7644H84.6031ZM82.9355 12.0262C82.9355 11.3979 83.1625 10.9031 83.6166 10.5419C84.0707 10.1806 84.6814 10 85.4486 10C86.1219 10 86.6073 10.1414 86.9048 10.4241C87.2179 10.6911 87.3745 11.0524 87.3745 11.5079C87.3745 12.089 87.1553 12.5759 86.7169 12.9686C86.2941 13.3455 85.6678 13.534 84.8379 13.534C83.5696 13.534 82.9355 13.0314 82.9355 12.0262Z" fill="#212121"/>
<path d="M94.7082 24.8665C95.1623 24.8665 95.5538 24.8037 95.8826 24.678C96.227 24.5524 96.5245 24.411 96.7751 24.2539C97.0256 24.0969 97.237 23.9555 97.4092 23.8298C97.5814 23.7042 97.738 23.6414 97.8789 23.6414C98.2391 23.6414 98.4191 23.877 98.4191 24.3482C98.4191 24.4581 98.3956 24.6152 98.3487 24.8194C98.3017 25.0079 98.2391 25.212 98.1608 25.4319C98.0825 25.6361 97.9964 25.8325 97.9024 26.0209C97.8241 26.2094 97.7458 26.3508 97.6676 26.445C97.5893 26.5236 97.4483 26.6492 97.2448 26.822C97.0569 26.9948 96.7986 27.1675 96.4697 27.3403C96.1409 27.5131 95.7573 27.6623 95.3189 27.788C94.8805 27.9293 94.3951 28 93.8627 28C93.2677 28 92.6492 27.9136 92.0072 27.7408C91.3809 27.5524 90.8094 27.2382 90.2927 26.7984C89.776 26.3429 89.3454 25.7382 89.001 24.9843C88.6721 24.2147 88.5077 23.2565 88.5077 22.1099C88.5077 21.7016 88.5312 21.2382 88.5782 20.7199C88.6408 20.1859 88.7583 19.644 88.9305 19.0942C89.1027 18.5288 89.3298 17.9791 89.6116 17.445C89.9091 16.8953 90.3005 16.4084 90.7859 15.9843C91.2713 15.5602 91.8507 15.2225 92.524 14.9712C93.2129 14.7042 94.0271 14.5707 94.9666 14.5707C95.7338 14.5707 96.3914 14.6649 96.9395 14.8534C97.5032 15.0262 97.9651 15.2696 98.3252 15.5838C98.6853 15.8822 98.9515 16.2356 99.1237 16.644C99.3116 17.0524 99.4056 17.4921 99.4056 17.9634C99.4056 18.8115 99.1394 19.4398 98.607 19.8482C98.0747 20.2408 97.3231 20.4372 96.3523 20.4372C96.1174 20.4372 95.953 20.4215 95.8591 20.3901C95.7808 20.3429 95.7416 20.2487 95.7416 20.1073C95.7416 19.7304 95.7338 19.3927 95.7182 19.0942C95.7025 18.7958 95.6555 18.5445 95.5772 18.3403C95.5146 18.1361 95.4128 17.9791 95.2719 17.8691C95.131 17.7592 94.9274 17.7042 94.6613 17.7042C94.1759 17.7042 93.7844 17.8613 93.4869 18.1754C93.2051 18.4895 92.9859 18.8743 92.8293 19.3298C92.6884 19.7696 92.5944 20.2251 92.5474 20.6963C92.5161 21.1675 92.5005 21.5602 92.5005 21.8743C92.5005 22.9895 92.6727 23.767 93.0172 24.2068C93.3773 24.6466 93.941 24.8665 94.7082 24.8665Z" fill="#212121"/>
<path d="M105.977 28C104.897 28 103.997 27.8508 103.276 27.5524C102.572 27.2382 102.008 26.8141 101.585 26.2801C101.163 25.7461 100.865 25.1257 100.693 24.4188C100.521 23.6963 100.435 22.9267 100.435 22.1099C100.435 21.1675 100.544 20.2487 100.763 19.3534C100.998 18.4424 101.39 17.6335 101.938 16.9267C102.486 16.2199 103.206 15.6544 104.099 15.2304C105.007 14.7906 106.134 14.5707 107.481 14.5707C109.453 14.5707 110.863 15.0576 111.708 16.0314C112.569 16.9895 113 18.3403 113 20.0838C113 20.5707 112.961 21.1126 112.883 21.7094C112.82 22.2906 112.687 22.8717 112.483 23.4529C112.295 24.034 112.029 24.5995 111.685 25.1492C111.356 25.699 110.933 26.1859 110.416 26.6099C109.9 27.034 109.273 27.3717 108.538 27.623C107.817 27.8743 106.964 28 105.977 28ZM107.081 17.7042C106.486 17.7042 106.009 17.8613 105.649 18.1754C105.304 18.4738 105.038 18.8429 104.85 19.2827C104.678 19.7068 104.56 20.1623 104.498 20.6492C104.451 21.1204 104.427 21.5209 104.427 21.8508C104.427 22.8874 104.592 23.6492 104.921 24.1361C105.249 24.623 105.719 24.8665 106.33 24.8665C106.878 24.8665 107.324 24.6937 107.669 24.3482C108.029 24.0026 108.303 23.5864 108.491 23.0995C108.694 22.6126 108.827 22.1021 108.89 21.5681C108.968 21.034 109.007 20.5864 109.007 20.2251C109.007 19.4398 108.858 18.8272 108.561 18.3874C108.279 17.9319 107.786 17.7042 107.081 17.7042Z" fill="#212121"/>
</svg>
